# xmcd CD database file
#
# Track frame offsets:
#	150
#	11520
#	29242
#	72341
#	88289
#	106274
#	124211
#	166156
#	187545
#	205040
#	223056
#	257453
#	274312
#	292963
#	321847
#
# Disc length: 4635 seconds
#
# Revision: 0
# Processed by: cddbd v1.5.1PL2 Copyright (c) Steve Scherf et al.
# Submitted via: CDex 1.51
#
DISCID=d912190f
DTITLE=The Nighthawks - Live At The Bottom Line
DYEAR=1990
DGENRE=Blues
TTITLE0=Standing In The Way Of A Good Thing
TTITLE1=A Thing Called Love
TTITLE2=As The Years Go Passing By
TTITLE3=I Need Your Loving Every Day
TTITLE4=Love Will
TTITLE5=If That Aint Love
TTITLE6=Keep On Smilin'
TTITLE7=Non Stop Love
TTITLE8=Grits Ain't Groceries
TTITLE9=Double It Up
TTITLE10=If You Go
TTITLE11=Trouble
TTITLE12=Blind Love
TTITLE13=It Hurts Me Too
TTITLE14=Talk To Me Baby
EXTD=YEAR: 1990
EXTT0=
EXTT1=
EXTT2=
EXTT3=
EXTT4=
EXTT5=
EXTT6=
EXTT7=
EXTT8=
EXTT9=
EXTT10=
EXTT11=
EXTT12=
EXTT13=
EXTT14=
PLAYORDER=
